<?xml version="1.0" encoding="UTF-8"?>
<mxfile host="app.diagrams.net" agent="1.0" version="24.7.17">
  <diagram name="TechnoSvit_Horizontal_BPMN" id="comprehensive-bpmn">
    <mxGraphModel dx="2074" dy="1406" grid="1" gridSize="10" guides="1" tooltips="1" connect="1" arrows="1" fold="1" page="1" pageScale="1" pageWidth="827" pageHeight="1169" math="0" shadow="0">
      <root>
        <mxCell id="0"/>
        <mxCell id="1" parent="0"/>
    <mxCell id="bpmn_1" value="TechnoSvit Web Store - Order Processing" style="swimlane;html=1;childLayout=stackLayout;resizeParent=1;resizeParentMax=0;horizontal=1;startSize=50;horizontalStack=0;collapsible=0;swimlaneLine=1;fillColor=#ffffff;strokeColor=#000000;fontStyle=1;fontSize=16;fontColor=#000000;" vertex="1" parent="1">
      <mxGeometry x="0" y="0" width="2200" height="1400" as="geometry"/>
    </mxCell>
    <mxCell id="bpmn_2" value="Customer Interface" style="swimlane;html=1;startSize=120;horizontal=1;swimlaneLine=1;fillColor=#f8f9fa;strokeColor=#6c757d;fontSize=14;fontColor=#000000;" vertex="1" parent="bpmn_1">
      <mxGeometry x="0" y="50" width="2150" height="280" as="geometry"/>
    </mxCell>
    <mxCell id="bpmn_3" value="Web Application" style="swimlane;html=1;startSize=120;horizontal=1;swimlaneLine=1;fillColor=#f8f9fa;strokeColor=#6c757d;fontSize=14;fontColor=#000000;" vertex="1" parent="bpmn_1">
      <mxGeometry x="0" y="330" width="2150" height="280" as="geometry"/>
    </mxCell>
    <mxCell id="bpmn_4" value="Business Logic" style="swimlane;html=1;startSize=120;horizontal=1;swimlaneLine=1;fillColor=#f8f9fa;strokeColor=#6c757d;fontSize=14;fontColor=#000000;" vertex="1" parent="bpmn_1">
      <mxGeometry x="0" y="610" width="2150" height="280" as="geometry"/>
    </mxCell>
    <mxCell id="bpmn_5" value="Data Layer" style="swimlane;html=1;startSize=120;horizontal=1;swimlaneLine=1;fillColor=#f8f9fa;strokeColor=#6c757d;fontSize=14;fontColor=#000000;" vertex="1" parent="bpmn_1">
      <mxGeometry x="0" y="890" width="2150" height="280" as="geometry"/>
    </mxCell>
    <mxCell id="bpmn_6" value="External Services" style="swimlane;html=1;startSize=120;horizontal=1;swimlaneLine=1;fillColor=#f8f9fa;strokeColor=#6c757d;fontSize=14;fontColor=#000000;" vertex="1" parent="bpmn_1">
      <mxGeometry x="0" y="1170" width="2150" height="280" as="geometry"/>
    </mxCell>
    <mxCell id="bpmn_7" value="âœ‰ Visit\nWebsite" style="ellipse;whiteSpace=wrap;html=1;aspect=fixed;fillColor=#D5E8D4;strokeColor=#82B366;strokeWidth=3;fontSize=10;fontColor=#000000;" vertex="1" parent="bpmn_2">
      <mxGeometry x="150" y="190" width="50" height="50" as="geometry"/>
    </mxCell>
    <mxCell id="bpmn_8" value="ðŸ‘¤ Browse\nProducts" style="rounded=1;whiteSpace=wrap;html=1;fillColor=#DAE8FC;strokeColor=#6C8EBF;strokeWidth=2;fontSize=11;fontColor=#000000;" vertex="1" parent="bpmn_2">
      <mxGeometry x="370" y="190" width="140" height="70" as="geometry"/>
    </mxCell>
    <mxCell id="bpmn_10" value="âœ• Add to\nCart?" style="rhombus;whiteSpace=wrap;html=1;fillColor=#FFF2CC;strokeColor=#D6B656;strokeWidth=3;fontSize=12;fontColor=#000000;" vertex="1" parent="bpmn_2">
      <mxGeometry x="590" y="190" width="60" height="60" as="geometry"/>
    </mxCell>
    <mxCell id="bpmn_12" value="ðŸ‘¤ Add to\nCart" style="rounded=1;whiteSpace=wrap;html=1;fillColor=#DAE8FC;strokeColor=#6C8EBF;strokeWidth=2;fontSize=11;fontColor=#000000;" vertex="1" parent="bpmn_2">
      <mxGeometry x="810" y="190" width="140" height="70" as="geometry"/>
    </mxCell>
    <mxCell id="bpmn_14" value="âœ• Proceed to\nCheckout?" style="rhombus;whiteSpace=wrap;html=1;fillColor=#FFF2CC;strokeColor=#D6B656;strokeWidth=3;fontSize=12;fontColor=#000000;" vertex="1" parent="bpmn_2">
      <mxGeometry x="1030" y="190" width="60" height="60" as="geometry"/>
    </mxCell>
    <mxCell id="bpmn_16" value="ðŸ‘¤ Checkout\nProcess" style="rounded=1;whiteSpace=wrap;html=1;fillColor=#DAE8FC;strokeColor=#6C8EBF;strokeWidth=2;fontSize=11;fontColor=#000000;" vertex="1" parent="bpmn_2">
      <mxGeometry x="1250" y="190" width="140" height="70" as="geometry"/>
    </mxCell>
    <mxCell id="bpmn_18" value="ðŸ‘¤ Provide\nPayment" style="rounded=1;whiteSpace=wrap;html=1;fillColor=#DAE8FC;strokeColor=#6C8EBF;strokeWidth=2;fontSize=11;fontColor=#000000;" vertex="1" parent="bpmn_2">
      <mxGeometry x="1470" y="190" width="140" height="70" as="geometry"/>
    </mxCell>
    <mxCell id="bpmn_20" value="Order\nConfirmed" style="ellipse;whiteSpace=wrap;html=1;aspect=fixed;fillColor=#F8CECC;strokeColor=#B85450;strokeWidth=6;fontSize=10;fontColor=#000000;" vertex="1" parent="bpmn_2">
      <mxGeometry x="1690" y="190" width="50" height="50" as="geometry"/>
    </mxCell>
    <mxCell id="bpmn_24" value="ðŸ“¥ Receive\nRequest" style="rounded=1;whiteSpace=wrap;html=1;fillColor=#D5E8D4;strokeColor=#82B366;strokeWidth=2;fontSize=11;fontColor=#000000;" vertex="1" parent="bpmn_3">
      <mxGeometry x="150" y="470" width="140" height="70" as="geometry"/>
    </mxCell>
    <mxCell id="bpmn_26" value="ðŸ’» Process\nRequest" style="rounded=1;whiteSpace=wrap;html=1;fillColor=#FFF2CC;strokeColor=#D6B656;strokeWidth=2;fontSize=11;fontColor=#000000;" vertex="1" parent="bpmn_3">
      <mxGeometry x="370" y="470" width="140" height="70" as="geometry"/>
    </mxCell>
    <mxCell id="bpmn_28" value="âš™ Validate\nSession" style="rounded=1;whiteSpace=wrap;html=1;fillColor=#E1D5E7;strokeColor=#9673A6;strokeWidth=2;fontSize=11;fontColor=#000000;" vertex="1" parent="bpmn_3">
      <mxGeometry x="590" y="470" width="140" height="70" as="geometry"/>
    </mxCell>
    <mxCell id="bpmn_30" value="ðŸ’» Process\nCart" style="rounded=1;whiteSpace=wrap;html=1;fillColor=#FFF2CC;strokeColor=#D6B656;strokeWidth=2;fontSize=11;fontColor=#000000;" vertex="1" parent="bpmn_3">
      <mxGeometry x="810" y="470" width="140" height="70" as="geometry"/>
    </mxCell>
    <mxCell id="bpmn_32" value="ðŸ’» Generate\nOrder" style="rounded=1;whiteSpace=wrap;html=1;fillColor=#FFF2CC;strokeColor=#D6B656;strokeWidth=2;fontSize=11;fontColor=#000000;" vertex="1" parent="bpmn_3">
      <mxGeometry x="1030" y="470" width="140" height="70" as="geometry"/>
    </mxCell>
    <mxCell id="bpmn_34" value="ðŸ“¤ Send to\nBusiness" style="rounded=1;whiteSpace=wrap;html=1;fillColor=#F8CECC;strokeColor=#B85450;strokeWidth=2;fontSize=11;fontColor=#000000;" vertex="1" parent="bpmn_3">
      <mxGeometry x="1250" y="470" width="140" height="70" as="geometry"/>
    </mxCell>
    <mxCell id="bpmn_36" value="ðŸ“¤ Send\nConfirmation" style="rounded=1;whiteSpace=wrap;html=1;fillColor=#F8CECC;strokeColor=#B85450;strokeWidth=2;fontSize=11;fontColor=#000000;" vertex="1" parent="bpmn_3">
      <mxGeometry x="1470" y="470" width="140" height="70" as="geometry"/>
    </mxCell>
    <mxCell id="bpmn_38" value="Process\nComplete" style="ellipse;whiteSpace=wrap;html=1;aspect=fixed;fillColor=#F8CECC;strokeColor=#B85450;strokeWidth=6;fontSize=10;fontColor=#000000;" vertex="1" parent="bpmn_3">
      <mxGeometry x="1690" y="470" width="50" height="50" as="geometry"/>
    </mxCell>
    <mxCell id="bpmn_40" value="ðŸ“¥ Receive\nOrder" style="rounded=1;whiteSpace=wrap;html=1;fillColor=#D5E8D4;strokeColor=#82B366;strokeWidth=2;fontSize=11;fontColor=#000000;" vertex="1" parent="bpmn_4">
      <mxGeometry x="150" y="750" width="140" height="70" as="geometry"/>
    </mxCell>
    <mxCell id="bpmn_42" value="âš™ Authenticate\nUser" style="rounded=1;whiteSpace=wrap;html=1;fillColor=#E1D5E7;strokeColor=#9673A6;strokeWidth=2;fontSize=11;fontColor=#000000;" vertex="1" parent="bpmn_4">
      <mxGeometry x="370" y="750" width="140" height="70" as="geometry"/>
    </mxCell>
    <mxCell id="bpmn_44" value="âš™ Validate\nOrder" style="rounded=1;whiteSpace=wrap;html=1;fillColor=#E1D5E7;strokeColor=#9673A6;strokeWidth=2;fontSize=11;fontColor=#000000;" vertex="1" parent="bpmn_4">
      <mxGeometry x="590" y="750" width="140" height="70" as="geometry"/>
    </mxCell>
    <mxCell id="bpmn_46" value="âš™ Check\nInventory" style="rounded=1;whiteSpace=wrap;html=1;fillColor=#E1D5E7;strokeColor=#9673A6;strokeWidth=2;fontSize=11;fontColor=#000000;" vertex="1" parent="bpmn_4">
      <mxGeometry x="810" y="750" width="140" height="70" as="geometry"/>
    </mxCell>
    <mxCell id="bpmn_48" value="âš™ Create\nOrder" style="rounded=1;whiteSpace=wrap;html=1;fillColor=#E1D5E7;strokeColor=#9673A6;strokeWidth=2;fontSize=11;fontColor=#000000;" vertex="1" parent="bpmn_4">
      <mxGeometry x="1030" y="750" width="140" height="70" as="geometry"/>
    </mxCell>
    <mxCell id="bpmn_50" value="âš™ Update\nInventory" style="rounded=1;whiteSpace=wrap;html=1;fillColor=#E1D5E7;strokeColor=#9673A6;strokeWidth=2;fontSize=11;fontColor=#000000;" vertex="1" parent="bpmn_4">
      <mxGeometry x="1250" y="750" width="140" height="70" as="geometry"/>
    </mxCell>
    <mxCell id="bpmn_52" value="ðŸ’» Generate\nInvoice" style="rounded=1;whiteSpace=wrap;html=1;fillColor=#FFF2CC;strokeColor=#D6B656;strokeWidth=2;fontSize=11;fontColor=#000000;" vertex="1" parent="bpmn_4">
      <mxGeometry x="1470" y="750" width="140" height="70" as="geometry"/>
    </mxCell>
    <mxCell id="bpmn_54" value="Order\nComplete" style="ellipse;whiteSpace=wrap;html=1;aspect=fixed;fillColor=#F8CECC;strokeColor=#B85450;strokeWidth=6;fontSize=10;fontColor=#000000;" vertex="1" parent="bpmn_4">
      <mxGeometry x="1690" y="750" width="50" height="50" as="geometry"/>
    </mxCell>
    <mxCell id="bpmn_56" value="Products\nDB" style="shape=cylinder3;whiteSpace=wrap;html=1;boundedLbl=1;backgroundOutline=1;size=15;fillColor=#F5F5F5;strokeColor=#666666;fontSize=10;fontColor=#000000;" vertex="1" parent="bpmn_5">
      <mxGeometry x="300" y="1030" width="100" height="70" as="geometry"/>
    </mxCell>
    <mxCell id="bpmn_57" value="Orders\nDB" style="shape=cylinder3;whiteSpace=wrap;html=1;boundedLbl=1;backgroundOutline=1;size=15;fillColor=#F5F5F5;strokeColor=#666666;fontSize=10;fontColor=#000000;" vertex="1" parent="bpmn_5">
      <mxGeometry x="500" y="1030" width="100" height="70" as="geometry"/>
    </mxCell>
    <mxCell id="bpmn_58" value="Users\nDB" style="shape=cylinder3;whiteSpace=wrap;html=1;boundedLbl=1;backgroundOutline=1;size=15;fillColor=#F5F5F5;strokeColor=#666666;fontSize=10;fontColor=#000000;" vertex="1" parent="bpmn_5">
      <mxGeometry x="700" y="1030" width="100" height="70" as="geometry"/>
    </mxCell>
    <mxCell id="bpmn_59" value="Cart\nDB" style="shape=cylinder3;whiteSpace=wrap;html=1;boundedLbl=1;backgroundOutline=1;size=15;fillColor=#F5F5F5;strokeColor=#666666;fontSize=10;fontColor=#000000;" vertex="1" parent="bpmn_5">
      <mxGeometry x="900" y="1030" width="100" height="70" as="geometry"/>
    </mxCell>
    <mxCell id="bpmn_60" value="Inventory\nDB" style="shape=cylinder3;whiteSpace=wrap;html=1;boundedLbl=1;backgroundOutline=1;size=15;fillColor=#F5F5F5;strokeColor=#666666;fontSize=10;fontColor=#000000;" vertex="1" parent="bpmn_5">
      <mxGeometry x="1100" y="1030" width="100" height="70" as="geometry"/>
    </mxCell>
    <mxCell id="bpmn_61" value="âš™ Payment\nGateway" style="rounded=1;whiteSpace=wrap;html=1;fillColor=#E1D5E7;strokeColor=#9673A6;strokeWidth=2;fontSize=11;fontColor=#000000;" vertex="1" parent="bpmn_6">
      <mxGeometry x="400" y="1310" width="140" height="70" as="geometry"/>
    </mxCell>
    <mxCell id="bpmn_63" value="âš™ Validate\nPayment" style="rounded=1;whiteSpace=wrap;html=1;fillColor=#E1D5E7;strokeColor=#9673A6;strokeWidth=2;fontSize=11;fontColor=#000000;" vertex="1" parent="bpmn_6">
      <mxGeometry x="620" y="1310" width="140" height="70" as="geometry"/>
    </mxCell>
    <mxCell id="bpmn_65" value="+ Payment\nResult" style="rhombus;whiteSpace=wrap;html=1;fillColor=#D5E8D4;strokeColor=#82B366;strokeWidth=3;fontSize=12;fontColor=#000000;" vertex="1" parent="bpmn_6">
      <mxGeometry x="840" y="1310" width="60" height="60" as="geometry"/>
    </mxCell>
    <mxCell id="bpmn_67" value="Payment\nSuccess" style="ellipse;whiteSpace=wrap;html=1;aspect=fixed;fillColor=#F8CECC;strokeColor=#B85450;strokeWidth=6;fontSize=10;fontColor=#000000;" vertex="1" parent="bpmn_6">
      <mxGeometry x="1060" y="1310" width="50" height="50" as="geometry"/>
    </mxCell>
    <mxCell id="bpmn_69" value="âš  Payment\nError" style="ellipse;whiteSpace=wrap;html=1;aspect=fixed;fillColor=#F8CECC;strokeColor=#B85450;strokeWidth=6;fontSize=10;fontColor=#000000;" vertex="1" parent="bpmn_6">
      <mxGeometry x="1060" y="1390" width="50" height="50" as="geometry"/>
    </mxCell>
    <mxCell id="bpmn_9" value="" style="edgeStyle=orthogonalEdgeStyle;rounded=0;orthogonalLoop=1;jettySize=auto;html=1;strokeWidth=2;strokeColor=#000000;endArrow=classic;endSize=8;" edge="1" parent="1" source="bpmn_7" target="bpmn_8">
      <mxGeometry relative="1" as="geometry"/>
    </mxCell>
    <mxCell id="bpmn_11" value="" style="edgeStyle=orthogonalEdgeStyle;rounded=0;orthogonalLoop=1;jettySize=auto;html=1;strokeWidth=2;strokeColor=#000000;endArrow=classic;endSize=8;" edge="1" parent="1" source="bpmn_8" target="bpmn_10">
      <mxGeometry relative="1" as="geometry"/>
    </mxCell>
    <mxCell id="bpmn_13" value="Yes" style="edgeStyle=orthogonalEdgeStyle;rounded=0;orthogonalLoop=1;jettySize=auto;html=1;strokeWidth=2;strokeColor=#000000;endArrow=classic;endSize=8;" edge="1" parent="1" source="bpmn_10" target="bpmn_12">
      <mxGeometry relative="1" as="geometry"/>
    </mxCell>
    <mxCell id="bpmn_15" value="" style="edgeStyle=orthogonalEdgeStyle;rounded=0;orthogonalLoop=1;jettySize=auto;html=1;strokeWidth=2;strokeColor=#000000;endArrow=classic;endSize=8;" edge="1" parent="1" source="bpmn_12" target="bpmn_14">
      <mxGeometry relative="1" as="geometry"/>
    </mxCell>
    <mxCell id="bpmn_17" value="Yes" style="edgeStyle=orthogonalEdgeStyle;rounded=0;orthogonalLoop=1;jettySize=auto;html=1;strokeWidth=2;strokeColor=#000000;endArrow=classic;endSize=8;" edge="1" parent="1" source="bpmn_14" target="bpmn_16">
      <mxGeometry relative="1" as="geometry"/>
    </mxCell>
    <mxCell id="bpmn_19" value="" style="edgeStyle=orthogonalEdgeStyle;rounded=0;orthogonalLoop=1;jettySize=auto;html=1;strokeWidth=2;strokeColor=#000000;endArrow=classic;endSize=8;" edge="1" parent="1" source="bpmn_16" target="bpmn_18">
      <mxGeometry relative="1" as="geometry"/>
    </mxCell>
    <mxCell id="bpmn_21" value="" style="edgeStyle=orthogonalEdgeStyle;rounded=0;orthogonalLoop=1;jettySize=auto;html=1;strokeWidth=2;strokeColor=#000000;endArrow=classic;endSize=8;" edge="1" parent="1" source="bpmn_18" target="bpmn_20">
      <mxGeometry relative="1" as="geometry"/>
    </mxCell>
    <mxCell id="bpmn_22" value="Continue\nBrowsing" style="edgeStyle=orthogonalEdgeStyle;rounded=0;orthogonalLoop=1;jettySize=auto;html=1;strokeWidth=2;strokeColor=#000000;endArrow=classic;endSize=8;" edge="1" parent="1" source="bpmn_10" target="bpmn_8">
      <mxGeometry relative="1" as="geometry"/>
    </mxCell>
    <mxCell id="bpmn_23" value="Continue\nShopping" style="edgeStyle=orthogonalEdgeStyle;rounded=0;orthogonalLoop=1;jettySize=auto;html=1;strokeWidth=2;strokeColor=#000000;endArrow=classic;endSize=8;" edge="1" parent="1" source="bpmn_14" target="bpmn_8">
      <mxGeometry relative="1" as="geometry"/>
    </mxCell>
    <mxCell id="bpmn_25" value="" style="edgeStyle=orthogonalEdgeStyle;rounded=0;orthogonalLoop=1;jettySize=auto;html=1;strokeWidth=2;strokeColor=#0066CC;dashed=1;dashPattern=8 8;startArrow=none;endArrow=classic;endSize=8;" edge="1" parent="1" source="bpmn_8" target="bpmn_24">
      <mxGeometry relative="1" as="geometry"/>
    </mxCell>
    <mxCell id="bpmn_27" value="" style="edgeStyle=orthogonalEdgeStyle;rounded=0;orthogonalLoop=1;jettySize=auto;html=1;strokeWidth=2;strokeColor=#000000;endArrow=classic;endSize=8;" edge="1" parent="1" source="bpmn_24" target="bpmn_26">
      <mxGeometry relative="1" as="geometry"/>
    </mxCell>
    <mxCell id="bpmn_29" value="" style="edgeStyle=orthogonalEdgeStyle;rounded=0;orthogonalLoop=1;jettySize=auto;html=1;strokeWidth=2;strokeColor=#000000;endArrow=classic;endSize=8;" edge="1" parent="1" source="bpmn_26" target="bpmn_28">
      <mxGeometry relative="1" as="geometry"/>
    </mxCell>
    <mxCell id="bpmn_31" value="" style="edgeStyle=orthogonalEdgeStyle;rounded=0;orthogonalLoop=1;jettySize=auto;html=1;strokeWidth=2;strokeColor=#000000;endArrow=classic;endSize=8;" edge="1" parent="1" source="bpmn_28" target="bpmn_30">
      <mxGeometry relative="1" as="geometry"/>
    </mxCell>
    <mxCell id="bpmn_33" value="" style="edgeStyle=orthogonalEdgeStyle;rounded=0;orthogonalLoop=1;jettySize=auto;html=1;strokeWidth=2;strokeColor=#000000;endArrow=classic;endSize=8;" edge="1" parent="1" source="bpmn_30" target="bpmn_32">
      <mxGeometry relative="1" as="geometry"/>
    </mxCell>
    <mxCell id="bpmn_35" value="" style="edgeStyle=orthogonalEdgeStyle;rounded=0;orthogonalLoop=1;jettySize=auto;html=1;strokeWidth=2;strokeColor=#000000;endArrow=classic;endSize=8;" edge="1" parent="1" source="bpmn_32" target="bpmn_34">
      <mxGeometry relative="1" as="geometry"/>
    </mxCell>
    <mxCell id="bpmn_37" value="" style="edgeStyle=orthogonalEdgeStyle;rounded=0;orthogonalLoop=1;jettySize=auto;html=1;strokeWidth=2;strokeColor=#000000;endArrow=classic;endSize=8;" edge="1" parent="1" source="bpmn_34" target="bpmn_36">
      <mxGeometry relative="1" as="geometry"/>
    </mxCell>
    <mxCell id="bpmn_39" value="" style="edgeStyle=orthogonalEdgeStyle;rounded=0;orthogonalLoop=1;jettySize=auto;html=1;strokeWidth=2;strokeColor=#000000;endArrow=classic;endSize=8;" edge="1" parent="1" source="bpmn_36" target="bpmn_38">
      <mxGeometry relative="1" as="geometry"/>
    </mxCell>
    <mxCell id="bpmn_41" value="" style="edgeStyle=orthogonalEdgeStyle;rounded=0;orthogonalLoop=1;jettySize=auto;html=1;strokeWidth=2;strokeColor=#0066CC;dashed=1;dashPattern=8 8;startArrow=none;endArrow=classic;endSize=8;" edge="1" parent="1" source="bpmn_34" target="bpmn_40">
      <mxGeometry relative="1" as="geometry"/>
    </mxCell>
    <mxCell id="bpmn_43" value="" style="edgeStyle=orthogonalEdgeStyle;rounded=0;orthogonalLoop=1;jettySize=auto;html=1;strokeWidth=2;strokeColor=#000000;endArrow=classic;endSize=8;" edge="1" parent="1" source="bpmn_40" target="bpmn_42">
      <mxGeometry relative="1" as="geometry"/>
    </mxCell>
    <mxCell id="bpmn_45" value="" style="edgeStyle=orthogonalEdgeStyle;rounded=0;orthogonalLoop=1;jettySize=auto;html=1;strokeWidth=2;strokeColor=#000000;endArrow=classic;endSize=8;" edge="1" parent="1" source="bpmn_42" target="bpmn_44">
      <mxGeometry relative="1" as="geometry"/>
    </mxCell>
    <mxCell id="bpmn_47" value="" style="edgeStyle=orthogonalEdgeStyle;rounded=0;orthogonalLoop=1;jettySize=auto;html=1;strokeWidth=2;strokeColor=#000000;endArrow=classic;endSize=8;" edge="1" parent="1" source="bpmn_44" target="bpmn_46">
      <mxGeometry relative="1" as="geometry"/>
    </mxCell>
    <mxCell id="bpmn_49" value="" style="edgeStyle=orthogonalEdgeStyle;rounded=0;orthogonalLoop=1;jettySize=auto;html=1;strokeWidth=2;strokeColor=#000000;endArrow=classic;endSize=8;" edge="1" parent="1" source="bpmn_46" target="bpmn_48">
      <mxGeometry relative="1" as="geometry"/>
    </mxCell>
    <mxCell id="bpmn_51" value="" style="edgeStyle=orthogonalEdgeStyle;rounded=0;orthogonalLoop=1;jettySize=auto;html=1;strokeWidth=2;strokeColor=#000000;endArrow=classic;endSize=8;" edge="1" parent="1" source="bpmn_48" target="bpmn_50">
      <mxGeometry relative="1" as="geometry"/>
    </mxCell>
    <mxCell id="bpmn_53" value="" style="edgeStyle=orthogonalEdgeStyle;rounded=0;orthogonalLoop=1;jettySize=auto;html=1;strokeWidth=2;strokeColor=#000000;endArrow=classic;endSize=8;" edge="1" parent="1" source="bpmn_50" target="bpmn_52">
      <mxGeometry relative="1" as="geometry"/>
    </mxCell>
    <mxCell id="bpmn_55" value="" style="edgeStyle=orthogonalEdgeStyle;rounded=0;orthogonalLoop=1;jettySize=auto;html=1;strokeWidth=2;strokeColor=#000000;endArrow=classic;endSize=8;" edge="1" parent="1" source="bpmn_52" target="bpmn_54">
      <mxGeometry relative="1" as="geometry"/>
    </mxCell>
    <mxCell id="bpmn_62" value="" style="edgeStyle=orthogonalEdgeStyle;rounded=0;orthogonalLoop=1;jettySize=auto;html=1;strokeWidth=2;strokeColor=#0066CC;dashed=1;dashPattern=8 8;startArrow=none;endArrow=classic;endSize=8;" edge="1" parent="1" source="bpmn_18" target="bpmn_61">
      <mxGeometry relative="1" as="geometry"/>
    </mxCell>
    <mxCell id="bpmn_64" value="" style="edgeStyle=orthogonalEdgeStyle;rounded=0;orthogonalLoop=1;jettySize=auto;html=1;strokeWidth=2;strokeColor=#000000;endArrow=classic;endSize=8;" edge="1" parent="1" source="bpmn_61" target="bpmn_63">
      <mxGeometry relative="1" as="geometry"/>
    </mxCell>
    <mxCell id="bpmn_66" value="" style="edgeStyle=orthogonalEdgeStyle;rounded=0;orthogonalLoop=1;jettySize=auto;html=1;strokeWidth=2;strokeColor=#000000;endArrow=classic;endSize=8;" edge="1" parent="1" source="bpmn_63" target="bpmn_65">
      <mxGeometry relative="1" as="geometry"/>
    </mxCell>
    <mxCell id="bpmn_68" value="Success" style="edgeStyle=orthogonalEdgeStyle;rounded=0;orthogonalLoop=1;jettySize=auto;html=1;strokeWidth=2;strokeColor=#000000;endArrow=classic;endSize=8;" edge="1" parent="1" source="bpmn_65" target="bpmn_67">
      <mxGeometry relative="1" as="geometry"/>
    </mxCell>
    <mxCell id="bpmn_70" value="Failed" style="edgeStyle=orthogonalEdgeStyle;rounded=0;orthogonalLoop=1;jettySize=auto;html=1;strokeWidth=2;strokeColor=#000000;endArrow=classic;endSize=8;" edge="1" parent="1" source="bpmn_65" target="bpmn_69">
      <mxGeometry relative="1" as="geometry"/>
    </mxCell>
      </root>
    </mxGraphModel>
  </diagram>
</mxfile>